<?xml version="1.0" encoding="utf-8"?>
<svg width="2000px" height="2000px" version="1.1" xmlns="http://www.w3.org/2000/svg">
  <g id="highlighttrack_3">
    <path d="M1000.000,305.715 A694.285,694.285 40.000 0,1 1115.555,315.399 L1117.220,305.538 A704.285,704.285 0.000 0,0 1000.000,295.715 Z" style="stroke-width:1.0;stroke:rgb(0,0,0);stroke-linecap:round;fill:rgb(230,46,46);"/>
    <path d="M1115.555,315.399 A694.285,694.285 40.000 0,1 1216.889,340.462 L1220.013,330.962 A704.285,704.285 0.000 0,0 1117.220,305.538 Z" style="stroke-width:1.0;stroke:rgb(0,0,0);stroke-linecap:round;fill:rgb(230,129,46);"/>
    <path d="M1216.889,340.462 A694.285,694.285 40.000 0,1 1324.570,386.252 L1329.244,377.412 A704.285,704.285 0.000 0,0 1220.013,330.962 Z" style="stroke-width:1.0;stroke:rgb(0,0,0);stroke-linecap:round;fill:rgb(230,211,46);"/>
    <path d="M1324.570,386.252 A694.285,694.285 40.000 0,1 1384.411,421.848 L1389.948,413.521 A704.285,704.285 0.000 0,0 1329.244,377.412 Z" style="stroke-width:1.0;stroke:rgb(0,0,0);stroke-linecap:round;fill:rgb(165,230,46);"/>
    <path d="M1384.411,421.848 A694.285,694.285 40.000 0,1 1456.499,476.894 L1463.074,469.359 A704.285,704.285 0.000 0,0 1389.948,413.521 Z" style="stroke-width:1.0;stroke:rgb(0,0,0);stroke-linecap:round;fill:rgb(80,230,46);"/>
    <path d="M1456.499,476.894 A694.285,694.285 40.000 0,1 1517.994,537.709 L1525.455,531.050 A704.285,704.285 0.000 0,0 1463.074,469.359 Z" style="stroke-width:1.0;stroke:rgb(0,0,0);stroke-linecap:round;fill:rgb(46,230,95);"/>
    <path d="M1517.994,537.709 A694.285,694.285 40.000 0,1 1574.432,610.052 L1582.706,604.436 A704.285,704.285 0.000 0,0 1525.455,531.050 Z" style="stroke-width:1.0;stroke:rgb(0,0,0);stroke-linecap:round;fill:rgb(46,230,177);"/>
    <path d="M1574.432,610.052 A694.285,694.285 40.000 0,1 1630.882,710.139 L1639.969,705.964 A704.285,704.285 0.000 0,0 1582.706,604.436 Z" style="stroke-width:1.0;stroke:rgb(0,0,0);stroke-linecap:round;fill:rgb(46,199,230);"/>
    <path d="M1630.882,710.139 A694.285,694.285 40.000 0,1 1656.055,772.791 L1665.504,769.518 A704.285,704.285 0.000 0,0 1639.969,705.964 Z" style="stroke-width:1.0;stroke:rgb(0,0,0);stroke-linecap:round;fill:rgb(46,113,230);"/>
    <path d="M1656.055,772.791 A694.285,694.285 40.000 0,1 1687.606,903.929 L1697.510,902.545 A704.285,704.285 0.000 0,0 1665.504,769.518 Z" style="stroke-width:1.0;stroke:rgb(0,0,0);stroke-linecap:round;fill:rgb(61,46,230);"/>
  </g>
  <path d="M 1000 285 C 1356.656 285 1658.77 547.837 1708.122 901.062 L 1742.785 896.219 C 1691.017 525.704 1374.114 250 1000 250 Z" style="stroke-width:1.0;stroke:rgb(0,0,0);stroke-linecap:round;fill:rgb(230,46,230);"/>
  <line x1="1278.2" y1="303.4" x2="1279.7" y2="299.7" style="stroke-width:3.0;stroke:rgb(0,0,0);stroke-linecap:round;fill:none;"/>
  <path d="M 1000 285 C 1356.656 285 1658.77 547.837 1708.122 901.062 L 1742.785 896.219 C 1691.017 525.704 1374.114 250 1000 250 Z" style="stroke-width:1.0;stroke:rgb(0,0,0);stroke-linecap:round;fill:none;"/>
  <g id="highlighttrack_3">
    <path d="M1691.116,933.737 A694.285,694.285 40.000 0,1 1693.351,1035.995 L1703.338,1036.513 A704.285,704.285 0.000 0,0 1701.070,932.782 Z" style="stroke-width:1.0;stroke:rgb(0,0,0);stroke-linecap:round;fill:rgb(230,46,46);"/>
    <path d="M1693.351,1035.995 A694.285,694.285 40.000 0,1 1666.681,1193.823 L1676.284,1196.615 A704.285,704.285 0.000 0,0 1703.338,1036.513 Z" style="stroke-width:1.0;stroke:rgb(0,0,0);stroke-linecap:round;fill:rgb(230,129,46);"/>
    <path d="M1666.681,1193.823 A694.285,694.285 40.000 0,1 1651.510,1239.931 L1660.894,1243.386 A704.285,704.285 0.000 0,0 1676.284,1196.615 Z" style="stroke-width:1.0;stroke:rgb(0,0,0);stroke-linecap:round;fill:rgb(230,211,46);"/>
    <path d="M1651.510,1239.931 A694.285,694.285 40.000 0,1 1616.139,1320.008 L1625.013,1324.617 A704.285,704.285 0.000 0,0 1660.894,1243.386 Z" style="stroke-width:1.0;stroke:rgb(0,0,0);stroke-linecap:round;fill:rgb(165,230,46);"/>
    <path d="M1616.139,1320.008 A694.285,694.285 40.000 0,1 1578.666,1383.637 L1587.000,1389.163 A704.285,704.285 0.000 0,0 1625.013,1324.617 Z" style="stroke-width:1.0;stroke:rgb(0,0,0);stroke-linecap:round;fill:rgb(80,230,46);"/>
    <path d="M1578.666,1383.637 A694.285,694.285 40.000 0,1 1466.121,1514.551 L1472.835,1521.962 A704.285,704.285 0.000 0,0 1587.000,1389.163 Z" style="stroke-width:1.0;stroke:rgb(0,0,0);stroke-linecap:round;fill:rgb(46,230,95);"/>
    <path d="M1466.121,1514.551 A694.285,694.285 40.000 0,1 1434.815,1541.265 L1441.078,1549.061 A704.285,704.285 0.000 0,0 1472.835,1521.962 Z" style="stroke-width:1.0;stroke:rgb(0,0,0);stroke-linecap:round;fill:rgb(46,230,177);"/>
    <path d="M1434.815,1541.265 A694.285,694.285 40.000 0,1 1321.954,1615.124 L1326.591,1623.983 A704.285,704.285 0.000 0,0 1441.078,1549.061 Z" style="stroke-width:1.0;stroke:rgb(0,0,0);stroke-linecap:round;fill:rgb(46,199,230);"/>
    <path d="M1321.954,1615.124 A694.285,694.285 40.000 0,1 1232.069,1654.351 L1235.412,1663.776 A704.285,704.285 0.000 0,0 1326.591,1623.983 Z" style="stroke-width:1.0;stroke:rgb(0,0,0);stroke-linecap:round;fill:rgb(46,113,230);"/>
    <path d="M1232.069,1654.351 A694.285,694.285 40.000 0,1 1148.914,1678.127 L1151.059,1687.894 A704.285,704.285 0.000 0,0 1235.412,1663.776 Z" style="stroke-width:1.0;stroke:rgb(0,0,0);stroke-linecap:round;fill:rgb(61,46,230);"/>
  </g>
  <path d="M 1711.736 931.76 C 1746.249 1291.729 1506.561 1620.798 1153.357 1698.36 L 1160.864 1732.545 C 1531.358 1651.186 1782.779 1306.009 1746.576 928.419 Z" style="stroke-width:1.0;stroke:rgb(0,0,0);stroke-linecap:round;fill:rgb(144,46,230);"/>
  <path d="M 1711.736 931.76 C 1746.249 1291.729 1506.561 1620.798 1153.357 1698.36 L 1160.864 1732.545 C 1531.358 1651.186 1782.779 1306.009 1746.576 928.419 Z" style="stroke-width:1.0;stroke:rgb(0,0,0);stroke-linecap:round;fill:none;"/>
  <g id="highlighttrack_4">
    <path d="M1121.187,1693.780 A704.285,704.285 40.000 0,1 1033.990,1703.464 L1034.472,1713.453 A714.285,714.285 0.000 0,0 1122.908,1703.631 Z" style="stroke-width:1.0;stroke:rgb(0,0,0);stroke-linecap:round;fill:rgb(144,46,230);"/>
    <path d="M1033.990,1703.464 A704.285,704.285 40.000 0,1 897.331,1696.761 L895.873,1706.655 A714.285,714.285 0.000 0,0 1034.472,1713.453 Z" style="stroke-width:1.0;stroke:rgb(0,0,0);stroke-linecap:round;fill:rgb(230,46,230);"/>
  </g>
  <path d="M 1123.031 1704.335 C 1047.923 1717.455 971.2 1718.477 895.769 1707.362 L 890.667 1741.988 C 969.79 1753.647 1050.269 1752.575 1129.053 1738.813 Z" style="stroke-width:1.0;stroke:rgb(0,0,0);stroke-linecap:round;fill:rgb(61,46,230);"/>
  <path d="M 1123.031 1704.335 C 1047.923 1717.455 971.2 1718.477 895.769 1707.362 L 890.667 1741.988 C 969.79 1753.647 1050.269 1752.575 1129.053 1738.813 Z" style="stroke-width:1.0;stroke:rgb(0,0,0);stroke-linecap:round;fill:none;"/>
  <g id="highlighttrack_4">
    <path d="M867.313,1691.673 A704.285,704.285 40.000 0,1 771.178,1666.077 L767.929,1675.534 A714.285,714.285 0.000 0,0 865.429,1701.494 Z" style="stroke-width:1.0;stroke:rgb(0,0,0);stroke-linecap:round;fill:rgb(144,46,230);"/>
    <path d="M771.178,1666.077 A704.285,704.285 40.000 0,1 707.560,1640.700 L703.408,1649.797 A714.285,714.285 0.000 0,0 767.929,1675.534 Z" style="stroke-width:1.0;stroke:rgb(0,0,0);stroke-linecap:round;fill:rgb(230,46,230);"/>
  </g>
  <path d="M 865.295 1702.196 C 809.366 1691.467 754.919 1674.095 703.111 1650.448 L 688.578 1682.288 C 742.922 1707.092 800.034 1725.315 858.701 1736.569 Z" style="stroke-width:1.0;stroke:rgb(0,0,0);stroke-linecap:round;fill:rgb(46,113,230);"/>
  <line x1="695.8" y1="1685.6" x2="694.2" y2="1689.3" style="stroke-width:3.0;stroke:rgb(0,0,0);stroke-linecap:round;fill:none;"/>
  <path d="M 865.295 1702.196 C 809.366 1691.467 754.919 1674.095 703.111 1650.448 L 688.578 1682.288 C 742.922 1707.092 800.034 1725.315 858.701 1736.569 Z" style="stroke-width:1.0;stroke:rgb(0,0,0);stroke-linecap:round;fill:none;"/>
  <g id="highlighttrack_4">
    <path d="M680.143,1627.462 A704.285,704.285 40.000 0,1 564.857,1553.776 L558.679,1561.639 A714.285,714.285 0.000 0,0 675.601,1636.371 Z" style="stroke-width:1.0;stroke:rgb(0,0,0);stroke-linecap:round;fill:rgb(144,46,230);"/>
    <path d="M564.857,1553.776 A704.285,704.285 40.000 0,1 479.478,1474.420 L472.087,1481.156 A714.285,714.285 0.000 0,0 558.679,1561.639 Z" style="stroke-width:1.0;stroke:rgb(0,0,0);stroke-linecap:round;fill:rgb(230,46,230);"/>
  </g>
  <path d="M 675.277 1637.008 C 598.57 1597.906 529.557 1545.271 471.559 1481.638 L 445.691 1505.214 C 506.527 1571.963 578.919 1627.174 659.381 1668.191 Z" style="stroke-width:1.0;stroke:rgb(0,0,0);stroke-linecap:round;fill:rgb(46,199,230);"/>
  <path d="M 675.277 1637.008 C 598.57 1597.906 529.557 1545.271 471.559 1481.638 L 445.691 1505.214 C 506.527 1571.963 578.919 1627.174 659.381 1668.191 Z" style="stroke-width:1.0;stroke:rgb(0,0,0);stroke-linecap:round;fill:none;"/>
  <g id="highlighttrack_4">
    <path d="M459.460,1451.480 A704.285,704.285 40.000 0,1 433.659,1418.659 L425.618,1424.604 A714.285,714.285 0.000 0,0 451.785,1457.890 Z" style="stroke-width:1.0;stroke:rgb(0,0,0);stroke-linecap:round;fill:rgb(144,46,230);"/>
    <path d="M433.659,1418.659 A704.285,704.285 40.000 0,1 383.397,1340.321 L374.642,1345.153 A714.285,714.285 0.000 0,0 425.618,1424.604 Z" style="stroke-width:1.0;stroke:rgb(0,0,0);stroke-linecap:round;fill:rgb(230,46,230);"/>
  </g>
  <path d="M 451.236 1458.349 C 421.95 1423.286 396.092 1385.496 374.016 1345.499 L 343.374 1362.411 C 366.53 1404.366 393.654 1444.005 424.374 1480.785 Z" style="stroke-width:1.0;stroke:rgb(0,0,0);stroke-linecap:round;fill:rgb(46,230,177);"/>
  <path d="M 451.236 1458.349 C 421.95 1423.286 396.092 1385.496 374.016 1345.499 L 343.374 1362.411 C 366.53 1404.366 393.654 1444.005 424.374 1480.785 Z" style="stroke-width:1.0;stroke:rgb(0,0,0);stroke-linecap:round;fill:none;"/>
  <g id="highlighttrack_4">
    <path d="M369.265,1313.354 A704.285,704.285 40.000 0,1 311.451,1148.046 L301.674,1150.148 A714.285,714.285 0.000 0,0 360.309,1317.803 Z" style="stroke-width:1.0;stroke:rgb(0,0,0);stroke-linecap:round;fill:rgb(144,46,230);"/>
    <path d="M311.451,1148.046 A704.285,704.285 40.000 0,1 298.387,1061.290 L288.425,1062.160 A714.285,714.285 0.000 0,0 301.674,1150.148 Z" style="stroke-width:1.0;stroke:rgb(0,0,0);stroke-linecap:round;fill:rgb(230,46,230);"/>
  </g>
  <path d="M 359.669 1318.121 C 319.899 1238.069 295.492 1151.27 287.713 1062.223 L 252.845 1065.268 C 261.005 1158.675 286.607 1249.723 328.324 1333.694 Z" style="stroke-width:1.0;stroke:rgb(0,0,0);stroke-linecap:round;fill:rgb(46,230,95);"/>
  <path d="M 359.669 1318.121 C 319.899 1238.069 295.492 1151.27 287.713 1062.223 L 252.845 1065.268 C 261.005 1158.675 286.607 1249.723 328.324 1333.694 Z" style="stroke-width:1.0;stroke:rgb(0,0,0);stroke-linecap:round;fill:none;"/>
  <g id="highlighttrack_4">
    <path d="M296.394,1030.909 A704.285,704.285 40.000 0,1 297.090,956.005 L287.110,955.380 A714.285,714.285 0.000 0,0 286.403,1031.348 Z" style="stroke-width:1.0;stroke:rgb(0,0,0);stroke-linecap:round;fill:rgb(144,46,230);"/>
    <path d="M297.090,956.005 A704.285,704.285 40.000 0,1 308.824,864.749 L299.010,862.828 A714.285,714.285 0.000 0,0 287.110,955.380 Z" style="stroke-width:1.0;stroke:rgb(0,0,0);stroke-linecap:round;fill:rgb(230,46,230);"/>
  </g>
  <path d="M 285.689 1031.38 C 283.205 974.849 287.441 918.223 298.308 862.691 L 263.96 855.97 C 252.561 914.22 248.118 973.618 250.723 1032.916 Z" style="stroke-width:1.0;stroke:rgb(0,0,0);stroke-linecap:round;fill:rgb(80,230,46);"/>
  <path d="M 285.689 1031.38 C 283.205 974.849 287.441 918.223 298.308 862.691 L 263.96 855.97 C 252.561 914.22 248.118 973.618 250.723 1032.916 Z" style="stroke-width:1.0;stroke:rgb(0,0,0);stroke-linecap:round;fill:none;"/>
  <g id="highlighttrack_4">
    <path d="M315.315,835.003 A704.285,704.285 40.000 0,1 341.521,750.155 L332.171,746.608 A714.285,714.285 0.000 0,0 305.593,832.660 Z" style="stroke-width:1.0;stroke:rgb(0,0,0);stroke-linecap:round;fill:rgb(144,46,230);"/>
    <path d="M341.521,750.155 A704.285,704.285 40.000 0,1 369.857,685.458 L360.909,680.992 A714.285,714.285 0.000 0,0 332.171,746.608 Z" style="stroke-width:1.0;stroke:rgb(0,0,0);stroke-linecap:round;fill:rgb(230,46,230);"/>
  </g>
  <path d="M 304.898 832.493 C 317.559 779.956 336.135 729.024 360.27 680.672 L 328.954 665.041 C 303.637 715.759 284.152 769.185 270.872 824.293 Z" style="stroke-width:1.0;stroke:rgb(0,0,0);stroke-linecap:round;fill:rgb(165,230,46);"/>
  <line x1="305.8" y1="715.9" x2="302.1" y2="714.4" style="stroke-width:3.0;stroke:rgb(0,0,0);stroke-linecap:round;fill:none;"/>
  <g id="highlighttrack_4">
    <path d="M384.040,658.517 A704.285,704.285 40.000 0,1 409.405,616.315 L401.019,610.867 A714.285,714.285 0.000 0,0 375.294,653.669 Z" style="stroke-width:1.0;stroke:rgb(0,0,0);stroke-linecap:round;fill:rgb(144,46,230);"/>
    <path d="M409.405,616.315 A704.285,704.285 40.000 0,1 482.227,522.581 L474.875,515.803 A714.285,714.285 0.000 0,0 401.019,610.867 Z" style="stroke-width:1.0;stroke:rgb(0,0,0);stroke-linecap:round;fill:rgb(230,46,230);"/>
  </g>
  <path d="M 374.669 653.322 C 402.282 603.515 435.746 557.185 474.35 515.318 L 448.619 491.592 C 408.125 535.509 373.022 584.107 344.058 636.352 Z" style="stroke-width:1.0;stroke:rgb(0,0,0);stroke-linecap:round;fill:rgb(230,211,46);"/>
  <line x1="344" y1="636.3" x2="338.7" y2="633.4" style="stroke-width:3.0;stroke:rgb(0,0,0);stroke-linecap:round;fill:none;"/>
  <line x1="373.5" y1="587.6" x2="370.2" y2="585.4" style="stroke-width:3.0;stroke:rgb(0,0,0);stroke-linecap:round;fill:none;"/>
  <path d="M 374.669 653.322 C 402.282 603.515 435.746 557.185 474.35 515.318 L 448.619 491.592 C 408.125 535.509 373.022 584.107 344.058 636.352 Z" style="stroke-width:1.0;stroke:rgb(0,0,0);stroke-linecap:round;fill:none;"/>
  <g id="highlighttrack_4">
    <path d="M503.345,500.650 A704.285,704.285 40.000 0,1 630.901,400.181 L625.660,391.664 A714.285,714.285 0.000 0,0 496.293,493.559 Z" style="stroke-width:1.0;stroke:rgb(0,0,0);stroke-linecap:round;fill:rgb(144,46,230);"/>
    <path d="M630.901,400.181 A704.285,704.285 40.000 0,1 725.002,351.623 L721.097,342.416 A714.285,714.285 0.000 0,0 625.660,391.664 Z" style="stroke-width:1.0;stroke:rgb(0,0,0);stroke-linecap:round;fill:rgb(230,46,230);"/>
  </g>
  <path d="M 495.789 493.052 C 560.462 428.729 636.845 377.374 720.818 341.758 L 707.152 309.536 C 619.068 346.896 538.945 400.764 471.107 468.237 Z" style="stroke-width:1.0;stroke:rgb(0,0,0);stroke-linecap:round;fill:rgb(230,129,46);"/>
  <path d="M 495.789 493.052 C 560.462 428.729 636.845 377.374 720.818 341.758 L 707.152 309.536 C 619.068 346.896 538.945 400.764 471.107 468.237 Z" style="stroke-width:1.0;stroke:rgb(0,0,0);stroke-linecap:round;fill:none;"/>
  <g id="highlighttrack_4">
    <path d="M753.281,340.343 A704.285,704.285 40.000 0,1 852.876,311.253 L850.787,301.474 A714.285,714.285 0.000 0,0 749.778,330.977 Z" style="stroke-width:1.0;stroke:rgb(0,0,0);stroke-linecap:round;fill:rgb(144,46,230);"/>
    <path d="M852.876,311.253 A704.285,704.285 40.000 0,1 969.561,296.373 L969.129,286.382 A714.285,714.285 0.000 0,0 850.787,301.474 Z" style="stroke-width:1.0;stroke:rgb(0,0,0);stroke-linecap:round;fill:rgb(230,46,230);"/>
  </g>
  <path d="M 749.528 330.307 C 819.917 303.981 894.017 288.916 969.098 285.668 L 967.585 250.701 C 888.829 254.108 811.102 269.91 737.267 297.525 Z" style="stroke-width:1.0;stroke:rgb(0,0,0);stroke-linecap:round;fill:rgb(230,46,46);"/>
  <path d="M 749.528 330.307 C 819.917 303.981 894.017 288.916 969.098 285.668 L 967.585 250.701 C 888.829 254.108 811.102 269.91 737.267 297.525 Z" style="stroke-width:1.0;stroke:rgb(0,0,0);stroke-linecap:round;fill:none;"/>
  <g id="flow">
    <path d="M 459.460,1451.480 A 704.285,704.285 0.00 0,1 433.7,1418.7 L 433.7,1418.7 451.0,1407.0 469.9,1396.2 490.3,1386.4 512.1,1377.4 535.3,1369.4 559.7,1362.2 585.3,1355.8 611.9,1350.2 639.5,1345.5 668.0,1341.5 697.2,1338.3 727.2,1335.8 757.8,1334.1 788.8,1333.1 820.3,1332.7 852.1,1333.1 884.2,1334.2 916.4,1335.9 948.7,1338.3 980.9,1341.3 1013.1,1345.0 1045.0,1349.3 1076.6,1354.2 1107.7,1359.8 1138.5,1365.9 1168.6,1372.7 1198.0,1380.0 1226.7,1388.0 1254.6,1396.5 1281.5,1405.7 1307.4,1415.4 1332.1,1425.7 1355.6,1436.6 1377.8,1448.1 1398.7,1460.2 1418.0,1472.9 1435.7,1486.2 1451.8,1500.1 1466.1,1514.6  A 694.285,694.285 0.00 0,1 1434.8,1541.3 L 1434.8,1541.3 1422.0,1526.8 1407.5,1512.8 1391.2,1499.4 1373.4,1486.6 1354.1,1474.3 1333.4,1462.7 1311.4,1451.6 1288.1,1441.1 1263.7,1431.2 1238.3,1421.8 1212.0,1413.1 1184.7,1405.1 1156.7,1397.6 1128.1,1390.8 1098.8,1384.6 1069.1,1379.0 1038.9,1374.1 1008.5,1369.9 977.8,1366.4 947.0,1363.5 916.2,1361.3 885.4,1359.8 854.7,1359.0 824.3,1359.0 794.3,1359.6 764.6,1361.0 735.5,1363.2 707.0,1366.1 679.1,1369.8 652.1,1374.2 625.9,1379.5 600.8,1385.5 576.6,1392.4 553.7,1400.1 532.0,1408.6 511.6,1418.0 492.7,1428.3 475.2,1439.4 459.5,1451.5  Z" style="stroke-width: 1.0;  stroke: rgb(0,0,0); fill: rgb(46,230,177); opacity: 0.833;"/>
    <path d="M 384.040,658.517 A 704.285,704.285 0.00 0,1 409.4,616.3 L 409.4,616.3 437.2,634.0 465.5,651.6 494.5,669.0 524.0,686.2 554.0,703.3 584.5,720.3 615.4,737.2 646.7,753.9 678.4,770.6 710.4,787.1 742.7,803.6 775.3,820.0 808.2,836.2 841.2,852.4 874.5,868.5 907.9,884.5 941.4,900.4 975.1,916.1 1008.8,931.8 1042.5,947.3 1076.3,962.6 1110.2,977.8 1143.9,992.9 1177.7,1007.8 1211.4,1022.4 1245.0,1036.9 1278.5,1051.1 1311.9,1065.0 1345.1,1078.7 1378.2,1092.0 1411.2,1105.1 1443.9,1117.7 1476.4,1130.0 1508.8,1141.9 1540.8,1153.3 1572.7,1164.2 1604.3,1174.7 1635.6,1184.5 1666.7,1193.8  A 694.285,694.285 0.00 0,1 1651.5,1239.9 L 1651.5,1239.9 1619.7,1228.1 1587.8,1215.9 1555.7,1203.4 1523.5,1190.6 1491.2,1177.6 1458.7,1164.3 1426.1,1150.8 1393.4,1137.1 1360.7,1123.2 1327.8,1109.1 1294.8,1094.8 1261.8,1080.4 1228.7,1065.8 1195.5,1051.1 1162.3,1036.3 1129.0,1021.4 1095.7,1006.4 1062.4,991.3 1029.1,976.1 995.8,960.8 962.5,945.4 929.2,930.0 896.0,914.5 862.8,899.0 829.8,883.4 796.8,867.7 763.9,852.0 731.1,836.3 698.5,820.4 666.1,804.6 633.8,788.6 601.7,772.6 569.8,756.6 538.1,740.5 506.7,724.3 475.6,708.0 444.8,691.6 414.2,675.1 384.0,658.5  Z" style="stroke-width: 1.0;  stroke: rgb(0,0,0); fill: rgb(230,211,46); opacity: 0.833;"/>
    <path d="M 771.178,1666.077 A 704.285,704.285 0.00 0,1 707.6,1640.7 L 707.6,1640.7 719.9,1615.1 733.5,1589.3 748.4,1563.2 764.5,1536.9 781.6,1510.4 799.8,1483.8 819.0,1456.9 839.1,1429.9 860.0,1402.8 881.7,1375.6 904.1,1348.3 927.1,1320.9 950.8,1293.6 974.9,1266.2 999.6,1238.9 1024.7,1211.7 1050.2,1184.6 1076.0,1157.6 1102.1,1130.8 1128.5,1104.2 1155.1,1078.0 1181.8,1052.0 1208.7,1026.4 1235.6,1001.2 1262.6,976.5 1289.6,952.2 1316.6,928.6 1343.6,905.5 1370.5,883.2 1397.3,861.5 1424.0,840.7 1450.5,820.7 1476.9,801.6 1503.1,783.5 1529.1,766.5 1554.9,750.5 1580.4,735.8 1605.8,722.3 1630.9,710.1  A 694.285,694.285 0.00 0,1 1656.1,772.8 L 1656.1,772.8 1631.9,781.9 1607.3,792.5 1582.5,804.7 1557.3,818.1 1531.8,832.9 1506.1,849.0 1480.1,866.1 1453.9,884.4 1427.5,903.7 1401.0,923.9 1374.3,944.9 1347.6,966.8 1320.8,989.4 1294.0,1012.7 1267.2,1036.7 1240.5,1061.1 1214.0,1086.1 1187.6,1111.5 1161.4,1137.4 1135.5,1163.5 1109.8,1189.9 1084.6,1216.6 1059.8,1243.5 1035.4,1270.5 1011.6,1297.6 988.4,1324.7 965.8,1351.9 944.0,1379.0 922.9,1406.1 902.7,1433.1 883.4,1459.9 865.1,1486.6 847.9,1513.1 831.8,1539.3 816.9,1565.3 803.4,1591.0 791.1,1616.3 780.4,1641.4 771.2,1666.1  Z" style="stroke-width: 1.0;  stroke: rgb(0,0,0); fill: rgb(46,113,230); opacity: 0.833;"/>
    <path d="M 341.521,750.155 A 704.285,704.285 0.00 0,1 369.9,685.5 L 369.9,685.5 388.3,693.7 408.2,700.7 429.3,706.5 451.7,711.1 475.2,714.6 499.8,717.1 525.3,718.5 551.6,718.8 578.8,718.2 606.6,716.6 635.1,714.0 664.1,710.6 693.5,706.4 723.3,701.3 753.3,695.4 783.5,688.7 813.8,681.3 844.1,673.2 874.3,664.4 904.3,654.9 934.1,644.8 963.5,634.2 992.5,622.9 1020.9,611.1 1048.7,598.8 1075.9,586.0 1102.2,572.8 1127.7,559.1 1152.1,545.0 1175.6,530.5 1197.9,515.6 1219.0,500.4 1238.7,484.9 1257.0,469.1 1273.9,453.0 1289.2,436.6 1302.8,420.0 1314.6,403.2 1324.6,386.3  A 694.285,694.285 0.00 0,1 1384.4,421.8 L 1384.4,421.8 1371.8,439.3 1357.4,456.4 1341.2,473.3 1323.3,489.8 1304.0,506.1 1283.1,522.1 1260.9,537.8 1237.3,553.1 1212.6,568.2 1186.8,582.8 1159.9,597.2 1132.1,611.1 1103.5,624.6 1074.1,637.7 1044.0,650.4 1013.3,662.6 982.1,674.4 950.6,685.6 918.7,696.3 886.5,706.5 854.2,716.0 821.8,725.0 789.5,733.3 757.2,741.0 725.1,747.9 693.3,754.1 661.8,759.6 630.8,764.2 600.3,768.0 570.4,770.9 541.1,772.8 512.7,773.8 485.0,773.8 458.3,772.8 432.6,770.6 408.0,767.3 384.6,762.9 362.4,757.2 341.5,750.2  Z" style="stroke-width: 1.0;  stroke: rgb(0,0,0); fill: rgb(165,230,46); opacity: 0.833;"/>
    <path d="M 296.394,1030.909 A 704.285,704.285 0.00 0,1 297.1,956.0 L 297.1,956.0 328.6,958.3 360.6,961.4 393.1,965.1 426.1,969.4 459.5,974.3 493.2,979.8 527.4,985.7 561.9,992.2 596.7,999.0 631.8,1006.3 667.2,1013.9 702.7,1021.9 738.5,1030.2 774.4,1038.8 810.4,1047.7 846.5,1056.8 882.6,1066.1 918.8,1075.7 954.9,1085.5 991.0,1095.4 1027.0,1105.6 1062.9,1115.9 1098.6,1126.4 1134.1,1137.0 1169.4,1147.8 1204.4,1158.8 1239.1,1170.0 1273.4,1181.3 1307.4,1192.8 1340.9,1204.4 1373.9,1216.3 1406.4,1228.4 1438.4,1240.7 1469.8,1253.2 1500.5,1266.0 1530.5,1279.0 1559.8,1292.3 1588.4,1306.0 1616.1,1320.0  A 694.285,694.285 0.00 0,1 1578.7,1383.6 L 1578.7,1383.6 1554.4,1368.2 1529.0,1353.1 1502.5,1338.5 1474.9,1324.2 1446.4,1310.3 1416.9,1296.7 1386.6,1283.4 1355.6,1270.4 1323.7,1257.7 1291.2,1245.2 1258.1,1233.0 1224.4,1221.0 1190.2,1209.3 1155.6,1197.8 1120.6,1186.6 1085.2,1175.6 1049.6,1164.8 1013.7,1154.3 977.6,1144.1 941.4,1134.1 905.2,1124.4 868.9,1115.1 832.7,1106.0 796.5,1097.4 760.5,1089.0 724.6,1081.1 689.0,1073.6 653.7,1066.6 618.6,1060.1 584.0,1054.1 549.8,1048.6 516.0,1043.8 482.7,1039.6 450.0,1036.1 417.9,1033.4 386.5,1031.4 355.7,1030.3 325.7,1030.1 296.4,1030.9  Z" style="stroke-width: 0.0;  stroke: rgb(0,0,0); fill: rgb(150,150,150); opacity: 0.167;"/>
    <path d="M 311.451,1148.046 A 704.285,704.285 0.00 0,1 298.4,1061.3 L 298.4,1061.3 326.0,1058.3 354.4,1054.0 383.4,1048.6 413.0,1042.0 443.2,1034.4 473.9,1025.9 505.1,1016.4 536.8,1006.1 568.9,995.0 601.3,983.2 634.0,970.6 667.0,957.4 700.3,943.6 733.7,929.3 767.2,914.5 800.7,899.2 834.3,883.4 867.9,867.3 901.3,850.8 934.6,834.0 967.7,816.9 1000.5,799.5 1033.0,781.9 1065.1,764.0 1096.8,745.9 1127.9,727.7 1158.5,709.3 1188.5,690.7 1217.7,671.9 1246.2,653.0 1273.8,634.0 1300.6,614.9 1326.3,595.6 1351.1,576.2 1374.7,556.6 1397.1,536.9 1418.3,517.1 1438.1,497.1 1456.5,476.9  A 694.285,694.285 0.00 0,1 1518.0,537.7 L 1518.0,537.7 1495.3,557.3 1471.6,576.8 1447.0,596.1 1421.3,615.2 1394.9,634.2 1367.6,653.0 1339.5,671.8 1310.7,690.4 1281.3,708.9 1251.3,727.2 1220.7,745.5 1189.6,763.7 1158.1,781.7 1126.1,799.7 1093.8,817.5 1061.1,835.1 1028.2,852.6 995.0,870.0 961.6,887.1 928.1,904.1 894.5,920.8 860.9,937.3 827.1,953.5 793.4,969.4 759.8,985.0 726.2,1000.3 692.7,1015.1 659.4,1029.5 626.3,1043.5 593.4,1057.0 560.7,1069.9 528.3,1082.2 496.2,1093.9 464.4,1104.9 433.0,1115.2 402.0,1124.8 371.4,1133.4 341.2,1141.2 311.5,1148.0  Z" style="stroke-width: 0.0;  stroke: rgb(0,0,0); fill: rgb(150,150,150); opacity: 0.167;"/>
    <path d="M 1121.187,1693.780 A 704.285,704.285 0.00 0,1 1034.0,1703.5 L 1034.0,1703.5 1033.6,1690.4 1033.7,1677.4 1034.4,1664.5 1035.5,1651.8 1037.1,1639.4 1039.1,1627.3 1041.6,1615.7 1044.6,1604.6 1047.9,1594.1 1051.7,1584.2 1055.8,1574.9 1060.4,1566.4 1065.2,1558.7 1070.4,1551.7 1075.9,1545.6 1081.7,1540.4 1087.8,1536.0 1094.1,1532.6 1100.6,1530.1 1107.4,1528.5 1114.3,1527.8 1121.3,1528.1 1128.5,1529.4 1135.7,1531.5 1143.0,1534.6 1150.3,1538.6 1157.6,1543.4 1164.9,1549.1 1172.1,1555.6 1179.2,1562.8 1186.1,1570.8 1192.9,1579.5 1199.4,1588.8 1205.7,1598.6 1211.8,1609.0 1217.4,1619.9 1222.7,1631.1 1227.6,1642.6 1232.1,1654.4  A 694.285,694.285 0.00 0,1 1148.9,1678.1 L 1148.9,1678.1 1146.2,1666.1 1143.5,1654.3 1140.8,1642.6 1138.0,1631.2 1135.2,1620.1 1132.5,1609.5 1129.8,1599.4 1127.2,1589.9 1124.6,1581.0 1122.2,1572.8 1119.8,1565.3 1117.6,1558.5 1115.5,1552.6 1113.5,1547.5 1111.7,1543.4 1110.0,1540.1 1108.5,1537.7 1107.2,1536.3 1106.0,1535.8 1105.1,1536.2 1104.3,1537.6 1103.7,1539.9 1103.4,1543.2 1103.2,1547.4 1103.2,1552.5 1103.4,1558.4 1103.7,1565.2 1104.3,1572.7 1105.1,1581.1 1106.0,1590.1 1107.1,1599.8 1108.4,1610.2 1109.8,1621.0 1111.4,1632.4 1113.1,1644.2 1115.0,1656.3 1116.9,1668.6 1119.0,1681.2 1121.2,1693.8  Z" style="stroke-width: 0.0;  stroke: rgb(0,0,0); fill: rgb(150,150,150); opacity: 0.167;"/>
    <path d="M 315.315,835.003 A 704.285,704.285 0.00 0,1 341.5,750.2 L 341.5,750.2 375.1,762.9 408.8,775.6 442.4,788.3 476.1,801.0 509.8,813.7 543.6,826.3 577.3,839.0 611.1,851.6 644.8,864.3 678.6,876.9 712.4,889.6 746.2,902.2 779.9,914.8 813.7,927.4 847.5,940.0 881.2,952.6 914.9,965.3 948.7,977.9 982.4,990.5 1016.1,1003.0 1049.7,1015.6 1083.4,1028.2 1117.0,1040.8 1150.6,1053.4 1184.1,1065.9 1217.7,1078.5 1251.2,1091.0 1284.7,1103.5 1318.2,1116.0 1351.6,1128.5 1385.0,1141.0 1418.4,1153.5 1451.8,1165.9 1485.1,1178.3 1518.5,1190.7 1551.8,1203.1 1585.0,1215.4 1618.3,1227.7 1651.5,1239.9  A 694.285,694.285 0.00 0,1 1616.1,1320.0 L 1616.1,1320.0 1586.8,1305.0 1556.9,1290.2 1526.6,1275.5 1495.8,1261.0 1464.5,1246.7 1432.9,1232.5 1400.9,1218.4 1368.6,1204.4 1335.9,1190.5 1302.9,1176.7 1269.7,1163.0 1236.2,1149.4 1202.4,1135.9 1168.5,1122.5 1134.4,1109.1 1100.2,1095.8 1065.8,1082.6 1031.3,1069.5 996.7,1056.4 962.0,1043.5 927.3,1030.7 892.5,1018.0 857.8,1005.4 823.0,993.0 788.3,980.7 753.7,968.6 719.1,956.6 684.6,944.9 650.1,933.3 615.9,922.1 581.7,911.0 547.7,900.3 513.9,889.8 480.2,879.7 446.8,869.9 413.6,860.5 380.6,851.6 347.8,843.1 315.3,835.0  Z" style="stroke-width: 0.0;  stroke: rgb(0,0,0); fill: rgb(150,150,150); opacity: 0.167;"/>
    <path d="M 297.090,956.005 A 704.285,704.285 0.00 0,1 308.8,864.7 L 308.8,864.7 332.1,868.5 356.6,870.8 382.1,871.8 408.6,871.6 436.0,870.2 464.2,867.6 493.3,863.9 523.0,859.2 553.4,853.5 584.3,846.8 615.8,839.4 647.6,831.0 679.8,821.9 712.3,812.1 745.0,801.5 777.8,790.3 810.7,778.5 843.5,766.1 876.2,753.2 908.8,739.8 941.1,725.9 973.0,711.5 1004.5,696.8 1035.5,681.7 1066.0,666.2 1095.8,650.3 1124.8,634.2 1153.0,617.7 1180.3,601.0 1206.6,584.1 1231.8,566.9 1255.9,549.4 1278.7,531.8 1300.2,513.9 1320.2,495.9 1338.8,477.7 1355.7,459.2 1370.9,440.6 1384.4,421.8  A 694.285,694.285 0.00 0,1 1456.5,476.9 L 1456.5,476.9 1439.1,495.8 1420.0,514.5 1399.5,532.9 1377.6,551.1 1354.4,569.1 1329.9,586.9 1304.3,604.4 1277.5,621.8 1249.8,638.9 1221.1,655.8 1191.6,672.5 1161.2,688.9 1130.2,705.1 1098.6,721.1 1066.3,736.8 1033.6,752.2 1000.5,767.3 967.0,782.1 933.2,796.5 899.2,810.6 865.1,824.3 830.8,837.5 796.6,850.3 762.4,862.5 728.4,874.3 694.5,885.4 660.8,896.0 627.5,905.8 594.5,915.0 561.9,923.4 529.8,931.0 498.2,937.8 467.3,943.6 437.0,948.5 407.4,952.3 378.5,955.0 350.5,956.6 323.3,956.9 297.1,956.0  Z" style="stroke-width: 0.0;  stroke: rgb(0,0,0); fill: rgb(150,150,150); opacity: 0.167;"/>
    <path d="M 433.659,1418.659 A 704.285,704.285 0.00 0,1 383.4,1340.3 L 383.4,1340.3 412.8,1323.9 442.3,1306.9 471.9,1289.6 501.6,1271.7 531.5,1253.5 561.4,1234.9 591.4,1216.0 621.5,1196.8 651.6,1177.3 681.8,1157.5 712.1,1137.5 742.4,1117.2 772.7,1096.8 803.1,1076.2 833.4,1055.4 863.7,1034.5 894.1,1013.4 924.3,992.3 954.5,971.0 984.7,949.7 1014.8,928.3 1044.7,906.8 1074.6,885.3 1104.3,863.8 1133.8,842.2 1163.2,820.6 1192.3,798.9 1221.2,777.3 1249.9,755.6 1278.3,733.9 1306.5,712.2 1334.3,690.5 1361.8,668.7 1388.9,647.0 1415.6,625.2 1441.9,603.4 1467.7,581.5 1493.1,559.6 1518.0,537.7  A 694.285,694.285 0.00 0,1 1574.4,610.1 L 1574.4,610.1 1545.4,629.8 1516.3,649.7 1487.2,669.7 1458.1,689.7 1428.9,709.8 1399.8,730.1 1370.6,750.3 1341.3,770.7 1312.1,791.1 1282.8,811.6 1253.5,832.1 1224.2,852.7 1194.8,873.3 1165.5,894.0 1136.1,914.7 1106.7,935.5 1077.3,956.3 1047.8,977.1 1018.4,998.0 988.9,1018.8 959.5,1039.7 930.0,1060.7 900.5,1081.6 871.1,1102.6 841.7,1123.5 812.2,1144.5 782.8,1165.5 753.5,1186.6 724.1,1207.6 694.8,1228.7 665.5,1249.7 636.3,1270.8 607.1,1291.9 578.0,1313.0 549.0,1334.1 520.0,1355.2 491.1,1376.3 462.4,1397.5 433.7,1418.7  Z" style="stroke-width: 0.0;  stroke: rgb(0,0,0); fill: rgb(150,150,150); opacity: 0.167;"/>
    <path d="M 867.313,1691.673 A 704.285,704.285 0.00 0,1 771.2,1666.1 L 771.2,1666.1 776.6,1652.3 783.3,1638.7 791.2,1625.4 800.2,1612.5 810.2,1600.0 821.3,1588.0 833.3,1576.4 846.2,1565.5 859.9,1555.2 874.4,1545.5 889.5,1536.5 905.3,1528.2 921.6,1520.7 938.4,1514.0 955.6,1508.1 973.2,1503.0 991.0,1498.7 1009.1,1495.4 1027.4,1492.9 1045.7,1491.2 1064.1,1490.5 1082.4,1490.6 1100.6,1491.7 1118.7,1493.6 1136.5,1496.4 1154.0,1500.0 1171.1,1504.5 1187.7,1509.9 1203.9,1516.0 1219.5,1523.0 1234.4,1530.6 1248.6,1539.1 1262.0,1548.2 1274.5,1557.9 1286.1,1568.3 1296.8,1579.3 1306.3,1590.8 1314.7,1602.7 1322.0,1615.1  A 694.285,694.285 0.00 0,1 1232.1,1654.4 L 1232.1,1654.4 1227.2,1642.1 1221.6,1630.1 1215.1,1618.5 1207.9,1607.2 1200.0,1596.5 1191.5,1586.3 1182.4,1576.6 1172.8,1567.6 1162.6,1559.3 1152.1,1551.7 1141.1,1544.9 1129.8,1538.9 1118.2,1533.7 1106.4,1529.4 1094.3,1526.0 1082.2,1523.5 1069.9,1521.9 1057.5,1521.2 1045.2,1521.5 1032.9,1522.6 1020.7,1524.7 1008.7,1527.8 996.8,1531.7 985.1,1536.5 973.7,1542.2 962.6,1548.8 951.9,1556.1 941.6,1564.2 931.8,1573.1 922.4,1582.7 913.6,1593.0 905.3,1603.8 897.7,1615.2 890.7,1627.1 884.5,1639.5 878.9,1652.1 874.2,1665.1 870.3,1678.3 867.3,1691.7  Z" style="stroke-width: 0.0;  stroke: rgb(0,0,0); fill: rgb(150,150,150); opacity: 0.167;"/>
    <path d="M 753.281,340.343 A 704.285,704.285 0.00 0,1 852.9,311.3 L 852.9,311.3 858.1,331.6 865.2,352.3 874.0,373.4 884.5,394.7 896.5,416.2 910.1,438.0 925.0,459.9 941.3,481.9 958.8,503.9 977.5,526.0 997.3,548.0 1018.1,569.9 1039.9,591.7 1062.5,613.3 1085.9,634.6 1110.0,655.7 1134.7,676.4 1160.0,696.7 1185.7,716.6 1211.9,736.0 1238.4,754.8 1265.1,773.0 1292.1,790.6 1319.1,807.4 1346.2,823.5 1373.3,838.7 1400.2,853.1 1427.0,866.4 1453.6,878.8 1479.8,890.1 1505.7,900.3 1531.1,909.3 1556.0,917.0 1580.4,923.5 1604.1,928.5 1627.0,932.1 1649.3,934.3 1670.6,934.8 1691.1,933.7  A 694.285,694.285 0.00 0,1 1693.4,1036.0 L 1693.4,1036.0 1670.2,1034.0 1646.2,1030.4 1621.6,1025.2 1596.3,1018.6 1570.4,1010.6 1543.9,1001.3 1516.9,990.7 1489.4,978.9 1461.6,966.1 1433.4,952.2 1404.9,937.3 1376.1,921.6 1347.2,904.9 1318.2,887.5 1289.1,869.4 1260.0,850.5 1231.0,831.1 1202.1,811.1 1173.5,790.5 1145.0,769.5 1117.0,748.1 1089.3,726.4 1062.1,704.3 1035.4,681.9 1009.4,659.3 984.0,636.5 959.5,613.6 935.7,590.6 912.9,567.5 891.1,544.4 870.3,521.3 850.8,498.2 832.4,475.2 815.4,452.3 799.8,429.6 785.7,407.0 773.2,384.5 762.4,362.3 753.3,340.3  Z" style="stroke-width: 0.0;  stroke: rgb(0,0,0); fill: rgb(150,150,150); opacity: 0.167;"/>
    <path d="M 630.901,400.181 A 704.285,704.285 0.00 0,1 725.0,351.6 L 725.0,351.6 730.8,364.1 737.5,376.3 745.1,388.1 753.4,399.5 762.4,410.3 772.1,420.6 782.3,430.2 793.1,439.2 804.4,447.4 816.1,455.0 828.2,461.7 840.7,467.6 853.3,472.6 866.2,476.8 879.3,480.1 892.5,482.5 905.7,483.9 919.0,484.5 932.2,484.1 945.3,482.8 958.3,480.6 971.1,477.5 983.7,473.5 996.0,468.6 1007.9,462.9 1019.5,456.3 1030.7,449.0 1041.4,440.8 1051.5,432.0 1061.2,422.5 1070.2,412.3 1078.6,401.6 1086.2,390.4 1093.2,378.6 1099.4,366.5 1104.7,354.1 1109.3,341.3 1112.9,328.4 1115.6,315.4  A 694.285,694.285 0.00 0,1 1216.9,340.5 L 1216.9,340.5 1211.7,354.1 1205.1,367.6 1197.3,380.8 1188.3,393.6 1178.2,406.1 1166.9,418.1 1154.7,429.7 1141.4,440.7 1127.4,451.2 1112.4,461.0 1096.8,470.2 1080.4,478.6 1063.4,486.4 1045.9,493.4 1027.8,499.6 1009.4,505.1 990.6,509.7 971.5,513.4 952.2,516.3 932.8,518.4 913.3,519.6 893.7,519.9 874.3,519.3 854.9,517.8 835.8,515.5 817.0,512.3 798.5,508.2 780.5,503.3 762.9,497.6 745.9,491.1 729.5,483.7 713.9,475.6 699.1,466.8 685.1,457.2 672.1,447.0 660.1,436.2 649.1,424.7 639.4,412.7 630.9,400.2  Z" style="stroke-width: 0.0;  stroke: rgb(0,0,0); fill: rgb(150,150,150); opacity: 0.167;"/>
    <path d="M 564.857,1553.776 A 704.285,704.285 0.00 0,1 479.5,1474.4 L 479.5,1474.4 505.1,1451.2 531.1,1428.1 557.3,1404.9 583.9,1381.8 610.7,1358.7 637.7,1335.6 665.0,1312.5 692.5,1289.4 720.2,1266.4 748.0,1243.4 776.0,1220.3 804.1,1197.3 832.4,1174.4 860.7,1151.4 889.2,1128.5 917.7,1105.6 946.3,1082.8 975.0,1060.0 1003.7,1037.2 1032.4,1014.6 1061.1,991.9 1089.9,969.4 1118.7,947.0 1147.4,924.6 1176.2,902.4 1204.9,880.3 1233.6,858.3 1262.3,836.5 1290.9,814.8 1319.5,793.3 1348.0,772.0 1376.5,750.8 1405.0,729.9 1433.4,709.3 1461.7,688.8 1490.0,668.7 1518.2,648.8 1546.3,629.3 1574.4,610.1  A 694.285,694.285 0.00 0,1 1630.9,710.1 L 1630.9,710.1 1603.4,723.2 1575.6,737.2 1547.7,752.2 1519.5,768.0 1491.1,784.5 1462.5,801.8 1433.7,819.8 1404.7,838.5 1375.6,857.7 1346.3,877.5 1316.9,897.9 1287.5,918.6 1257.9,939.9 1228.2,961.5 1198.6,983.4 1168.9,1005.7 1139.2,1028.3 1109.6,1051.2 1080.1,1074.2 1050.7,1097.5 1021.4,1121.0 992.3,1144.6 963.4,1168.3 934.8,1192.2 906.4,1216.1 878.4,1240.1 850.7,1264.2 823.5,1288.3 796.7,1312.4 770.4,1336.6 744.7,1360.7 719.6,1384.9 695.1,1409.1 671.3,1433.2 648.3,1457.3 626.1,1481.5 604.7,1505.6 584.3,1529.7 564.9,1553.8  Z" style="stroke-width: 0.0;  stroke: rgb(0,0,0); fill: rgb(150,150,150); opacity: 0.167;"/>
    <path d="M 852.876,311.253 A 704.285,704.285 0.00 0,1 969.6,296.4 L 969.6,296.4 970.2,309.2 970.8,321.8 971.5,334.3 972.3,346.6 973.2,358.4 974.1,369.9 975.0,380.8 976.0,391.1 977.0,400.9 978.0,409.9 979.0,418.2 980.1,425.7 981.2,432.4 982.3,438.3 983.4,443.2 984.4,447.3 985.5,450.4 986.6,452.5 987.6,453.7 988.7,454.0 989.7,453.2 990.7,451.5 991.6,448.9 992.5,445.3 993.4,440.9 994.2,435.5 995.0,429.3 995.8,422.2 996.5,414.4 997.1,405.8 997.7,396.6 998.2,386.7 998.7,376.2 999.1,365.3 999.4,353.9 999.7,342.2 999.8,330.2 1000.0,318.0 1000.0,305.7  A 694.285,694.285 0.00 0,1 1115.6,315.4 L 1115.6,315.4 1113.1,327.9 1110.0,340.2 1106.4,352.4 1102.1,364.2 1097.4,375.7 1092.1,386.7 1086.3,397.2 1080.1,407.1 1073.6,416.4 1066.6,425.0 1059.3,432.9 1051.7,440.0 1043.8,446.3 1035.7,451.7 1027.3,456.3 1018.8,459.9 1010.1,462.7 1001.4,464.5 992.5,465.4 983.6,465.4 974.8,464.4 965.9,462.4 957.1,459.5 948.4,455.7 939.8,451.0 931.4,445.4 923.2,439.0 915.2,431.7 907.5,423.6 900.1,414.8 893.0,405.3 886.3,395.2 880.0,384.5 874.2,373.2 868.8,361.4 864.0,349.3 859.7,336.8 856.0,324.1 852.9,311.3  Z" style="stroke-width: 0.0;  stroke: rgb(0,0,0); fill: rgb(150,150,150); opacity: 0.167;"/>
    <path d="M 409.405,616.315 A 704.285,704.285 0.00 0,1 482.2,522.6 L 482.2,522.6 495.1,533.3 509.3,543.2 524.8,552.2 541.5,560.3 559.3,567.4 578.1,573.7 597.8,579.0 618.4,583.5 639.7,587.0 661.7,589.6 684.3,591.3 707.3,592.0 730.8,591.9 754.5,591.0 778.6,589.1 802.7,586.4 827.0,582.8 851.2,578.4 875.3,573.2 899.3,567.2 923.0,560.4 946.4,552.9 969.4,544.7 991.8,535.7 1013.7,526.1 1035.0,515.8 1055.5,505.0 1075.2,493.5 1094.0,481.5 1111.8,469.0 1128.7,456.0 1144.4,442.6 1158.9,428.9 1172.1,414.7 1184.1,400.3 1194.6,385.6 1203.6,370.7 1211.1,355.6 1216.9,340.5  A 694.285,694.285 0.00 0,1 1324.6,386.3 L 1324.6,386.3 1315.0,402.4 1303.7,418.3 1290.6,433.9 1275.9,449.3 1259.6,464.3 1241.8,479.0 1222.7,493.3 1202.3,507.2 1180.7,520.7 1157.9,533.7 1134.2,546.3 1109.4,558.4 1083.9,570.0 1057.5,581.1 1030.5,591.6 1002.9,601.5 974.8,610.8 946.3,619.5 917.4,627.5 888.4,634.9 859.1,641.5 829.9,647.5 800.6,652.7 771.5,657.1 742.5,660.7 713.9,663.6 685.6,665.6 657.9,666.7 630.7,667.0 604.1,666.3 578.3,664.7 553.3,662.2 529.3,658.8 506.2,654.3 484.3,648.8 463.6,642.3 444.1,634.7 426.0,626.1 409.4,616.3  Z" style="stroke-width: 0.0;  stroke: rgb(0,0,0); fill: rgb(150,150,150); opacity: 0.167;"/>
    <path d="M 680.143,1627.462 A 704.285,704.285 0.00 0,1 564.9,1553.8 L 564.9,1553.8 576.8,1540.0 590.3,1526.9 605.4,1514.4 622.0,1502.5 640.0,1491.3 659.3,1480.8 679.8,1470.9 701.4,1461.8 724.1,1453.3 747.6,1445.6 772.1,1438.5 797.2,1432.2 823.1,1426.6 849.5,1421.8 876.4,1417.7 903.7,1414.3 931.3,1411.7 959.1,1409.8 987.0,1408.7 1015.0,1408.4 1042.9,1408.8 1070.7,1409.9 1098.3,1411.8 1125.5,1414.5 1152.3,1417.9 1178.7,1422.1 1204.4,1427.0 1229.4,1432.6 1253.7,1439.0 1277.2,1446.1 1299.6,1453.9 1321.1,1462.5 1341.4,1471.7 1360.5,1481.6 1378.3,1492.2 1394.8,1503.5 1409.7,1515.5 1423.1,1528.0 1434.8,1541.3  A 694.285,694.285 0.00 0,1 1322.0,1615.1 L 1322.0,1615.1 1314.3,1602.1 1305.3,1589.5 1295.0,1577.4 1283.4,1565.8 1270.7,1554.7 1256.9,1544.2 1242.1,1534.3 1226.3,1525.1 1209.7,1516.6 1192.3,1508.7 1174.1,1501.7 1155.4,1495.4 1136.0,1489.8 1116.2,1485.1 1095.9,1481.2 1075.4,1478.2 1054.5,1475.9 1033.5,1474.6 1012.3,1474.1 991.1,1474.4 969.9,1475.6 948.8,1477.7 928.0,1480.6 907.3,1484.3 887.1,1488.9 867.2,1494.3 847.8,1500.4 828.9,1507.4 810.7,1515.1 793.2,1523.6 776.5,1532.7 760.7,1542.6 745.8,1553.1 731.9,1564.2 719.0,1575.9 707.4,1588.1 697.0,1600.8 687.9,1613.9 680.1,1627.5  Z" style="stroke-width: 0.0;  stroke: rgb(0,0,0); fill: rgb(150,150,150); opacity: 0.167;"/>
    <path d="M 1033.990,1703.464 A 704.285,704.285 0.00 0,1 897.3,1696.8 L 897.3,1696.8 901.7,1672.7 907.6,1648.0 915.1,1622.7 924.1,1596.9 934.4,1570.6 946.1,1543.9 958.9,1516.7 973.0,1489.2 988.1,1461.4 1004.2,1433.3 1021.3,1405.1 1039.2,1376.6 1058.0,1348.1 1077.5,1319.5 1097.7,1291.0 1118.5,1262.4 1139.9,1234.0 1161.8,1205.8 1184.1,1177.9 1206.9,1150.2 1230.0,1122.9 1253.4,1096.0 1277.0,1069.6 1300.9,1043.8 1324.9,1018.6 1349.0,994.1 1373.2,970.4 1397.4,947.5 1421.6,925.5 1445.8,904.5 1469.9,884.6 1493.9,865.8 1517.7,848.2 1541.4,831.9 1564.8,817.0 1588.0,803.6 1611.0,791.7 1633.7,781.4 1656.1,772.8  A 694.285,694.285 0.00 0,1 1687.6,903.9 L 1687.6,903.9 1667.7,907.6 1647.2,913.1 1626.3,920.3 1605.1,929.1 1583.5,939.5 1561.6,951.4 1539.4,964.8 1517.1,979.4 1494.6,995.3 1472.1,1012.4 1449.5,1030.7 1426.9,1049.9 1404.4,1070.2 1382.0,1091.3 1359.8,1113.2 1337.8,1135.9 1316.2,1159.3 1294.8,1183.3 1273.9,1207.8 1253.5,1232.7 1233.5,1258.1 1214.2,1283.8 1195.4,1309.7 1177.4,1335.8 1160.2,1362.0 1143.7,1388.3 1128.2,1414.6 1113.6,1440.7 1100.0,1466.7 1087.5,1492.5 1076.1,1518.0 1065.9,1543.1 1057.0,1567.8 1049.4,1592.0 1043.3,1615.7 1038.6,1638.7 1035.4,1661.1 1033.9,1682.7 1034.0,1703.5  Z" style="stroke-width: 0.0;  stroke: rgb(0,0,0); fill: rgb(150,150,150); opacity: 0.167;"/>
    <path d="M 503.345,500.650 A 704.285,704.285 0.00 0,1 630.9,400.2 L 630.9,400.2 645.0,421.7 660.7,443.2 678.0,464.7 696.7,486.2 716.9,507.6 738.3,529.0 760.9,550.3 784.6,571.6 809.4,592.8 835.2,613.9 861.8,634.9 889.3,655.7 917.5,676.4 946.3,696.9 975.8,717.1 1005.8,737.2 1036.2,757.0 1067.0,776.4 1098.1,795.6 1129.5,814.3 1161.0,832.6 1192.7,850.5 1224.4,867.9 1256.1,884.7 1287.8,901.0 1319.3,916.6 1350.7,931.5 1381.8,945.7 1412.6,959.1 1443.0,971.6 1473.1,983.3 1502.7,993.9 1531.8,1003.6 1560.4,1012.1 1588.4,1019.5 1615.7,1025.6 1642.3,1030.5 1668.2,1034.0 1693.4,1036.0  A 694.285,694.285 0.00 0,1 1666.7,1193.8 L 1666.7,1193.8 1637.9,1185.0 1608.7,1175.2 1579.2,1164.6 1549.2,1153.0 1519.0,1140.7 1488.4,1127.6 1457.6,1113.8 1426.4,1099.4 1395.1,1084.4 1363.4,1068.8 1331.6,1052.7 1299.6,1036.1 1267.5,1019.1 1235.3,1001.6 1202.9,983.8 1170.5,965.7 1138.1,947.3 1105.7,928.5 1073.4,909.5 1041.1,890.3 1009.0,870.9 977.0,851.3 945.3,831.5 913.8,811.6 882.6,791.6 851.7,771.4 821.2,751.1 791.1,730.7 761.5,710.2 732.5,689.7 704.0,669.0 676.1,648.3 648.9,627.5 622.5,606.6 596.8,585.6 572.1,564.5 548.2,543.3 525.2,522.1 503.3,500.6  Z" style="stroke-width: 0.0;  stroke: rgb(0,0,0); fill: rgb(150,150,150); opacity: 0.167;"/>
    <path d="M 369.265,1313.354 A 704.285,704.285 0.00 0,1 311.5,1148.0 L 311.5,1148.0 338.5,1142.9 366.5,1138.7 395.5,1135.5 425.5,1133.3 456.3,1131.8 488.0,1131.2 520.4,1131.3 553.5,1132.2 587.2,1133.7 621.5,1135.8 656.3,1138.6 691.5,1141.9 727.2,1145.7 763.1,1150.0 799.4,1154.8 835.8,1160.0 872.3,1165.7 909.0,1171.7 945.6,1178.2 982.2,1185.0 1018.7,1192.2 1055.0,1199.7 1091.0,1207.5 1126.7,1215.7 1162.0,1224.3 1196.9,1233.2 1231.3,1242.4 1265.1,1251.9 1298.2,1261.8 1330.6,1272.1 1362.3,1282.7 1393.0,1293.8 1422.9,1305.2 1451.8,1317.1 1479.5,1329.4 1506.2,1342.2 1531.7,1355.4 1555.8,1369.3 1578.7,1383.6  A 694.285,694.285 0.00 0,1 1466.1,1514.6 L 1466.1,1514.6 1450.8,1498.8 1433.6,1483.7 1414.8,1469.0 1394.4,1454.8 1372.5,1441.1 1349.2,1427.9 1324.6,1415.1 1298.8,1402.8 1271.8,1391.1 1243.8,1379.7 1214.8,1368.9 1185.0,1358.5 1154.4,1348.7 1123.0,1339.3 1091.1,1330.4 1058.7,1322.1 1025.8,1314.2 992.6,1306.9 959.1,1300.2 925.5,1294.0 891.8,1288.3 858.1,1283.3 824.5,1278.9 791.0,1275.1 757.9,1272.0 725.1,1269.6 692.7,1267.9 660.8,1266.9 629.6,1266.6 599.0,1267.2 569.3,1268.6 540.3,1270.8 512.4,1273.9 485.5,1278.0 459.6,1283.0 435.0,1289.0 411.7,1296.0 389.8,1304.1 369.3,1313.4  Z" style="stroke-width: 0.0;  stroke: rgb(0,0,0); fill: rgb(150,150,150); opacity: 0.167;"/>
  </g>
  <defs>
    <pattern id="hline-sparse" width="10" height="10" patternTransform="rotate(0 0 0)" patternUnits="userSpaceOnUse">
      <line x1="0" y1="0" x2="10" y2="0" style="stroke:black;stroke-width:2"/>
    </pattern>
    <pattern id="checker" width="10" height="10" patternTransform="rotate(45 0 0)" patternUnits="userSpaceOnUse">
      <line x1="0" y1="0" x2="10" y2="0" style="stroke:black;stroke-width:2"/>
      <line x1="0" y1="0" x2="0" y2="10" style="stroke:black;stroke-width:2"/>
    </pattern>
    <pattern id="checker" width="10" height="10" patternTransform="rotate(45 0 0)" patternUnits="userSpaceOnUse">
      <line x1="0" y1="0" x2="10" y2="0" style="stroke:black;stroke-width:5"/>
      <line x1="0" y1="0" x2="0" y2="10" style="stroke:black;stroke-width:4"/>
    </pattern>
    <pattern id="hline" width="10" height="10" patternTransform="rotate(0 0 0)" patternUnits="userSpaceOnUse">
      <line x1="0" y1="0" x2="10" y2="0" style="stroke:black;stroke-width:5"/>
    </pattern>
    <pattern id="vline-sparse" width="10" height="10" patternTransform="rotate(0 0 0)" patternUnits="userSpaceOnUse">
      <line x1="0" y1="0" x2="0" y2="10" style="stroke:black;stroke-width:2"/>
    </pattern>
    <pattern id="vline" width="10" height="10" patternTransform="rotate(0 0 0)" patternUnits="userSpaceOnUse">
      <line x1="0" y1="0" x2="0" y2="10" style="stroke:black;stroke-width:5"/>
    </pattern>
  </defs>
</svg>